<?xml version="1.0" standalone="no"?><!DOCTYPE svg PUBLIC "-//W3C//DTD SVG 1.1//EN" "http://www.w3.org/Graphics/SVG/1.1/DTD/svg11.dtd"><svg t="1714224763333" class="icon" viewBox="0 0 1174 1024" version="1.1" xmlns="http://www.w3.org/2000/svg" p-id="4833" xmlns:xlink="http://www.w3.org/1999/xlink" width="229.296875" height="200"><path d="M636.328619 207.478784c0-10.640043 12.753579-15.881557 24.788992-15.693141 12.036779 0.189781 27.809109 7.102464 27.809109 16.79633 0 9.689771-16.471381 9.239211-27.809109 9.239211-5.711189 0-16.091819 0.723627-20.55919-1.810432-4.404565-2.502656-4.418219-8.533333-4.229802-8.533333z" p-id="4834" fill="#FFA600"></path><path d="M636.328619 207.478784c0-10.640043 12.753579-15.881557 24.788992-15.693141 12.036779 0.189781 27.809109 7.102464 27.809109 16.79633 0 9.689771-16.471381 9.239211-27.809109 9.239211-5.711189 0-16.091819 0.723627-20.55919-1.810432-4.404565-2.502656-4.418219-8.533333-4.229802-8.533333z" p-id="4835" fill="#FFA600"></path><path d="M725.923157 164.7616c0 26.346837-21.356544 47.703381-47.703381 47.703381s-47.704747-21.356544-47.704747-47.704746c0-26.346837 21.357909-47.704747 47.704747-47.704747 26.346837 0 47.704747 21.357909 47.704747 47.704747z" p-id="4836" fill="#FFA600"></path><path d="M725.923157 164.7616c0 26.346837-21.356544 47.703381-47.703381 47.703381s-47.704747-21.356544-47.704747-47.704746c0-26.346837 21.357909-47.704747 47.704747-47.704747 26.346837 0 47.704747 21.357909 47.704747 47.704747z" p-id="4837" fill="#FFA600"></path><path d="M719.050069 143.639893c0.277163 2.10944 0.53248 4.235264 0.53248 6.425259 0 27.200171-22.055595 49.311744-49.258496 49.311744-12.514645 0-23.796395-4.830549-32.486741-12.526933 7.830187 14.297771 22.934869 24.04352 40.392021 24.04352 25.490773 0 46.075904-20.635648 46.075904-46.125056 0-7.645867-1.968811-14.783829-5.255168-21.128534z" p-id="4838" fill="#FFA600"></path><path d="M676.069376 207.478784c0-10.640043 12.753579-15.881557 24.790357-15.693141 12.035413 0.189781 27.807744 7.102464 27.807744 16.79633 0 9.689771-16.470016 9.239211-27.807744 9.239211-5.711189 0-16.091819 0.723627-20.563285-1.810432-4.405931-2.502656-4.415488-8.533333-4.227072-8.533333z" p-id="4839" fill="#FFA600"></path><path d="M676.069376 207.478784c0-10.640043 12.752213-15.881557 24.790357-15.693141 12.035413 0.189781 27.807744 7.102464 27.807744 16.79633 0 9.689771-16.470016 9.239211-27.807744 9.239211-5.711189 0-16.091819 0.723627-20.563285-1.810432-4.405931-2.502656-4.415488-8.533333-4.227072-8.533333z" p-id="4840" fill="#FFA600"></path><path d="M688.526677 158.22848c0 8.269824-3.421525 14.972245-7.64177 14.972245-4.21888 0-7.640405-6.703787-7.640406-14.97088 0-8.268459 3.421525-14.972245 7.640406-14.972245 4.220245 0 7.641771 6.703787 7.64177 14.972245z" p-id="4841" fill="#FFA600"></path><path d="M680.905387 143.254869c-4.21888 0-7.636309 6.692864-7.63631 14.959958 0 7.12704 2.558635 13.112661 5.961046 14.632277-1.717589-2.755243-2.807125-6.935893-2.807126-11.620352 0-8.268459 3.416064-14.961323 7.63631-14.961323 0.582997 0 1.130496 0.133803 1.675264 0.376832-1.314816-2.099883-2.998272-3.387392-4.827819-3.387392z" p-id="4842" fill="#FFA600"></path><path d="M668.472661 158.217557c0 8.268459-3.421525 14.97088-7.64177 14.97088-4.21888 0-7.640405-6.702421-7.640406-14.97088s3.421525-14.97088 7.640406-14.97088c4.220245 0 7.641771 6.703787 7.64177 14.97088z" p-id="4843" fill="#FFA600"></path><path d="M660.852736 143.242581c-4.220245 0-7.637675 6.692864-7.637675 14.961323 0 7.125675 2.56 13.111296 5.962411 14.630912-1.718955-2.755243-2.808491-6.935893-2.808491-11.618987 0-8.269824 3.416064-14.962688 7.63631-14.962688 0.584363 0 1.130496 0.135168 1.675264 0.376832-1.314816-2.099883-2.998272-3.386027-4.827819-3.386026z" p-id="4844" fill="#FFA600"></path><path d="M719.746389 198.811648c-0.432811 8.205653-9.284267 16.083627-27.52785 17.812139h25.908565l9.714347-4.210688-0.323584-7.771478z" p-id="4845" fill="#FFA600"></path><path d="M307.422549 315.10528c0-19.00544 22.779221-28.368896 44.27776-28.030293 21.497173 0.337237 49.669461 12.686677 49.669462 29.999104 0 17.309696-29.418837 16.502784-49.670827 16.502784-10.19904 0-28.741632 1.292971-36.722005-3.23311-7.868416-4.470101-7.891627-15.239851-7.55439-15.23985z" p-id="4846" fill="#FFA600"></path><path d="M307.422549 315.10528c0-19.00544 22.779221-28.368896 44.27776-28.030293 21.497173 0.337237 49.669461 12.686677 49.669462 29.999104 0 17.309696-29.418837 16.502784-49.670827 16.502784-10.19904 0-28.741632 1.292971-36.722005-3.23311-7.868416-4.470101-7.891627-15.239851-7.55439-15.23985z" p-id="4847" fill="#FFA600"></path><path d="M467.451904 238.804992c0 47.058944-38.147413 85.206357-85.204992 85.206357-47.060309 0-85.207723-38.147413-85.207723-85.206357 0-47.060309 38.147413-85.207723 85.207723-85.207723 47.057579 0 85.204992 38.147413 85.204992 85.207723z" p-id="4848" fill="#FFA600"></path><path d="M467.451904 238.804992c0 47.058944-38.147413 85.206357-85.204992 85.206357-47.060309 0-85.207723-38.147413-85.207723-85.206357 0-47.060309 38.147413-85.207723 85.207723-85.207723 47.057579 0 85.204992 38.147413 85.204992 85.207723z" p-id="4849" fill="#FFA600"></path><path d="M455.174827 201.078101c0.494251 3.76832 0.950272 7.565312 0.950272 11.476992 0 48.584021-39.392597 88.077653-87.98208 88.077654-22.351872 0-42.502827-8.628907-58.026667-22.375083 13.985109 25.537195 40.966827 42.94656 72.146944 42.94656 45.528405 0 82.299563-36.859904 82.299563-82.386944 0-13.653333-3.518464-26.405547-9.388032-37.737813z" p-id="4850" fill="#FFA600"></path><path d="M378.406229 315.10528c0-19.00544 22.779221-28.368896 44.27776-28.030293 21.497173 0.337237 49.670827 12.686677 49.670827 29.999104 0 17.309696-29.420203 16.502784-49.670827 16.502784-10.19904 0-28.742997 1.292971-36.730197-3.23311-7.868416-4.470101-7.8848-15.239851-7.547563-15.23985z" p-id="4851" fill="#FFA600"></path><path d="M378.406229 315.10528c0-19.00544 22.77376-28.368896 44.27776-28.030293 21.497173 0.337237 49.670827 12.686677 49.670827 29.999104 0 17.309696-29.420203 16.502784-49.670827 16.502784-10.19904 0-28.742997 1.292971-36.730197-3.23311-7.868416-4.470101-7.8848-15.239851-7.547563-15.23985z" p-id="4852" fill="#FFA600"></path><path d="M427.271509 237.944832c0 14.768811-6.109867 26.741419-13.647872 26.741419-7.53664 0-13.647872-11.972608-13.647872-26.741419 0-14.768811 6.109867-26.740053 13.647872-26.740053 7.53664 0 13.647872 11.971243 13.647872 26.740053z" p-id="4853" fill="#FFA600"></path><path d="M413.660501 211.197952c-7.53664 0-13.641045 11.953493-13.641045 26.722304 0 12.727637 4.571136 23.419563 10.6496 26.13248-3.069269-4.920661-5.0176-12.387669-5.0176-20.754432 0-14.768811 6.10304-26.722304 13.641045-26.722304 1.041749 0 2.017963 0.238933 2.992811 0.671744-2.348373-3.750571-5.356203-6.049792-8.624811-6.049792z" p-id="4854" fill="#FFA600"></path><path d="M391.451989 237.922987c0 14.768811-6.109867 26.741419-13.647872 26.741418-7.53664 0-13.647872-11.972608-13.647872-26.740053 0-14.768811 6.111232-26.741419 13.647872-26.741419 7.538005 0 13.647872 11.972608 13.647872 26.741419z" p-id="4855" fill="#FFA600"></path><path d="M377.842347 211.176107c-7.538005 0-13.642411 11.953493-13.642411 26.722304 0 12.727637 4.571136 23.419563 10.6496 26.133845-3.069269-4.920661-5.0176-12.389035-5.0176-20.755797 0-14.768811 6.10304-26.722304 13.642411-26.722304 1.041749 0 2.016597 0.240299 2.991445 0.673109-2.348373-3.750571-5.356203-6.051157-8.624811-6.051157z" p-id="4856" fill="#FFA600"></path><path d="M456.41728 299.623765c-0.771413 14.654123-16.581973 28.730709-49.168384 31.814998h46.276608l17.353387-7.520256-0.578902-13.88271z" p-id="4857" fill="#FFA600"></path><path d="M749.75232 317.003093c0-17.432576 20.895061-26.020523 40.613205-25.711957 19.719509 0.311296 45.561173 11.638101 45.561174 27.518293 0 15.878827-26.984448 15.137451-45.561174 15.137451-9.356629 0-26.364587 1.186475-33.682773-2.965504-7.218517-4.100096-7.240363-13.978283-6.930432-13.978283z" p-id="4858" fill="#FFA600"></path><path d="M749.75232 317.003093c0-17.432576 20.895061-26.020523 40.613205-25.711957 19.719509 0.311296 45.561173 11.638101 45.561174 27.518293 0 15.878827-26.984448 15.137451-45.561174 15.137451-9.356629 0-26.364587 1.186475-33.682773-2.965504-7.218517-4.100096-7.240363-13.978283-6.930432-13.978283z" p-id="4859" fill="#FFA600"></path><path d="M896.542037 247.016107c0 43.166379-34.990763 78.155776-78.155776 78.155776-43.167744 0-78.158507-34.989397-78.158506-78.155776 0-43.166379 34.990763-78.158507 78.158506-78.158507 43.165013 0 78.155776 34.992128 78.155776 78.158507z" p-id="4860" fill="#FFA600"></path><path d="M896.542037 247.016107c0 43.166379-34.990763 78.155776-78.155776 78.155776-43.167744 0-78.158507-34.989397-78.158506-78.155776 0-43.166379 34.990763-78.158507 78.158506-78.158507 43.165013 0 78.155776 34.992128 78.155776 78.158507z" p-id="4861" fill="#FFA600"></path><path d="M885.280768 212.411733c0.451925 3.454293 0.871083 6.938624 0.871083 10.52672 0 44.56448-36.133547 80.789504-80.704854 80.789504-20.501845 0-38.985728-7.913472-53.223424-20.522325 12.828672 23.423659 37.576704 39.392597 66.177707 39.392597 41.761451 0 75.48928-33.809749 75.48928-75.5712 0-12.524203-3.226283-24.221013-8.609792-34.615296z" p-id="4862" fill="#FFA600"></path><path d="M814.863701 317.003093c0-17.432576 20.893696-26.020523 40.613206-25.711957 19.719509 0.311296 45.561173 11.638101 45.561173 27.518293 0 15.878827-26.984448 15.137451-45.561173 15.137451-9.355264 0-26.364587 1.186475-33.690966-2.965504-7.217152-4.100096-7.232171-13.978283-6.92224-13.978283z" p-id="4863" fill="#FFA600"></path><path d="M814.863701 317.003093c0-17.432576 20.8896-26.020523 40.613206-25.711957 19.719509 0.311296 45.561173 11.638101 45.561173 27.518293 0 15.878827-26.984448 15.137451-45.561173 15.137451-9.355264 0-26.364587 1.186475-33.690966-2.965504-7.217152-4.100096-7.232171-13.978283-6.92224-13.978283z" p-id="4864" fill="#FFA600"></path><path d="M840.699904 239.893163c0 13.546837-5.604693 24.528213-12.518741 24.528213-6.912683 0-12.517376-10.981376-12.517376-24.528213s5.604693-24.529579 12.517376-24.529579c6.914048 0 12.520107 10.982741 12.520106 24.529579z" p-id="4865" fill="#FFA600"></path><path d="M828.215296 215.358123c-6.914048 0-12.51328 10.963627-12.51328 24.511829 0 11.6736 4.194304 21.482155 9.76896 23.971157-2.815317-4.513792-4.601173-11.363669-4.601173-19.038208 0-13.546837 5.597867-24.511829 12.511914-24.511829 0.955733 0 1.851392 0.219819 2.74432 0.617131-2.153131-3.44064-4.912469-5.55008-7.910741-5.55008z" p-id="4866" fill="#FFA600"></path><path d="M807.844523 239.872683c0 13.546837-5.604693 24.529579-12.518742 24.529578s-12.518741-10.982741-12.518741-24.529578 5.604693-24.528213 12.518741-24.528214 12.520107 10.981376 12.520107 24.528214z" p-id="4867" fill="#FFA600"></path><path d="M795.359915 215.339008c-6.914048 0-12.51328 10.963627-12.51328 24.510464 0 11.674965 4.194304 21.48352 9.76896 23.972523-2.815317-4.515157-4.601173-11.365035-4.601174-19.038208 0-13.546837 5.597867-24.511829 12.511915-24.51183 0.955733 0 1.851392 0.219819 2.74432 0.617131-2.154496-3.44064-4.912469-5.55008-7.910741-5.55008z" p-id="4868" fill="#FFA600"></path><path d="M886.420821 302.803627c-0.708608 13.441707-15.209813 26.352299-45.101056 29.182634h42.448214l15.917056-6.897664-0.531115-12.734464z" p-id="4869" fill="#FFA600"></path><path d="M462.509397 438.310229c0-28.143616 33.733291-42.008576 65.568768-41.508864 31.835477 0.501077 73.554603 18.786987 73.554603 44.426582 0 25.632768-43.565056 24.439467-73.554603 24.439466-15.106048 0-42.565632 1.912832-54.381226-4.789589-11.65312-6.619136-11.687253-22.567595-11.187542-22.567595z" p-id="4870" fill="#FFA600"></path><path d="M462.509397 438.310229c0-28.143616 33.733291-42.008576 65.568768-41.508864 31.835477 0.501077 73.554603 18.786987 73.554603 44.426582 0 25.632768-43.565056 24.439467-73.554603 24.439466-15.106048 0-42.565632 1.912832-54.381226-4.789589-11.65312-6.619136-11.687253-22.567595-11.187542-22.567595z" p-id="4871" fill="#FFA600"></path><path d="M699.4944 325.317973c0 69.690709-56.492032 126.181376-126.180011 126.181376-69.690709 0-126.182741-56.490667-126.182741-126.18001 0-69.690709 56.492032-126.184107 126.184107-126.184107 69.686613 0 126.178645 56.493397 126.178645 126.184107z" p-id="4872" fill="#FFA600"></path><path d="M699.4944 325.317973c0 69.690709-56.492032 126.181376-126.180011 126.181376-69.690709 0-126.182741-56.490667-126.182741-126.18001 0-69.690709 56.492032-126.184107 126.184107-126.184107 69.686613 0 126.178645 56.493397 126.178645 126.184107z" p-id="4873" fill="#FFA600"></path><path d="M681.314987 269.451264c0.730453 5.578752 1.404928 11.20256 1.404928 16.994304 0 71.947605-58.335232 130.434389-130.292395 130.434389-33.099776 0-62.941867-12.776789-85.929984-33.135274 20.712107 37.819733 60.667221 63.599957 106.841429 63.599957 67.424256 0 121.87648-54.586027 121.87648-122.006187 0-20.220587-5.210112-39.103147-13.901824-55.887189z" p-id="4874" fill="#FFA600"></path><path d="M567.627776 438.310229c0-28.143616 33.733291-42.008576 65.570133-41.508864 31.834112 0.501077 73.555968 18.786987 73.555968 44.426582 0 25.632768-43.566421 24.439467-73.555968 24.439466-15.104683 0-42.565632 1.912832-54.392149-4.789589-11.65312-6.619136-11.677696-22.567595-11.177984-22.567595z" p-id="4875" fill="#FFA600"></path><path d="M567.627776 438.310229c0-28.143616 33.726464-42.008576 65.570133-41.508864 31.834112 0.501077 73.555968 18.786987 73.555968 44.426582 0 25.632768-43.566421 24.439467-73.555968 24.439466-15.104683 0-42.565632 1.912832-54.392149-4.789589-11.65312-6.619136-11.677696-22.567595-11.177984-22.567595z" p-id="4876" fill="#FFA600"></path><path d="M618.181973 315.587243c0 21.871275-9.049429 39.600128-20.212394 39.600128-11.1616 0-20.209664-17.728853-20.209664-39.600128 0-21.871275 9.048064-39.600128 20.209664-39.600128 11.162965 0 20.211029 17.728853 20.211029 39.600128z" p-id="4877" fill="#FFA600"></path><path d="M598.025557 275.977557c-11.162965 0-20.202837 17.701547-20.202837 39.572822 0 18.848427 6.770688 34.682197 15.7696 38.700373-4.543829-7.288149-7.427413-18.345984-7.427413-30.736384 0-21.871275 9.038507-39.572821 20.201472-39.572821 1.542827 0 2.987349 0.354987 4.431872 0.996693-3.478869-5.555541-7.932587-8.960683-12.772694-8.960683z" p-id="4878" fill="#FFA600"></path><path d="M565.137408 315.55584c0 21.869909-9.049429 39.600128-20.211029 39.600128-11.162965 0-20.211029-17.730219-20.21103-39.600128 0-21.871275 9.048064-39.600128 20.21103-39.600128 11.1616 0 20.211029 17.728853 20.211029 39.600128z" p-id="4879" fill="#FFA600"></path><path d="M544.980992 275.946155c-11.162965 0-20.202837 17.701547-20.202837 39.572821 0 18.848427 6.772053 34.682197 15.770965 38.700373-4.545195-7.288149-7.428779-18.347349-7.428779-30.736384 0-21.871275 9.038507-39.572821 20.201472-39.572821 1.542827 0 2.987349 0.354987 4.431872 0.996693-3.478869-5.555541-7.932587-8.960683-12.772693-8.960682z" p-id="4880" fill="#FFA600"></path><path d="M683.154091 415.386283c-1.142784 21.700608-24.556885 42.545152-72.813227 47.113557h68.530176l25.698304-11.135659-0.857429-20.559189z" p-id="4881" fill="#FFA600"></path><path d="M68.416853 678.322176h53.155158c30.593024 0.770048 57.884672-5.780821 81.876309-19.655339 23.991637-13.874517 39.794005-39.698432 47.405739-77.471744 4.209323-25.468928 2.422101-45.282645-5.360299-59.443882-7.7824-14.159872-19.629397-24.038059-35.539627-29.633195-15.911595-5.595136-33.953109-8.278016-54.127274-8.050005H102.671701z m67.818838-163.642027h21.707434c16.889173 0.128341 30.605312 5.925547 41.147051 17.394347s14.252715 27.841877 11.132928 49.120597c-4.385451 21.27872-13.870421 37.651797-28.456277 49.119232-14.587221 11.4688-30.347264 17.267371-47.282859 17.394347H112.776533zM255.619072 678.322176h53.155157c30.593024 0.770048 57.886037-5.780821 81.87904-19.655339 23.990272-13.874517 39.79264-39.698432 47.404374-77.471744 4.209323-25.468928 2.422101-45.282645-5.360299-59.443882-7.7824-14.159872-19.629397-24.038059-35.539627-29.633195-15.911595-5.595136-33.953109-8.278016-54.127274-8.050005H289.87392z m67.818837-163.642027h21.7088c16.889173 0.128341 30.605312 5.925547 41.147051 17.394347 10.540373 11.4688 14.252715 27.841877 11.131563 49.120597-4.384085 21.27872-13.869056 37.651797-28.456278 49.119232-14.585856 11.4688-30.347264 17.267371-47.281493 17.394347h-21.7088zM440.317269 678.322176h37.292715l9.276075-52.599467c1.082709-7.204864 2.886315-15.305387 5.40945-24.304298 2.523136-8.998912 6.529024-16.853675 12.01903-23.562923 5.490005-6.710613 13.227349-10.235904 23.210666-10.575872 3.409237 0.004096 6.563157 0.273067 9.46176 0.800085 2.898603 0.528384 5.130923 1.282048 6.69696 2.260992l6.625963-37.569877a26.204843 26.204843 0 0 0-5.638827-0.974848 75.907072 75.907072 0 0 0-5.574656-0.139264c-11.388245 0.662187-21.263701 4.975275-29.625002 12.941995-8.362667 7.965355-13.677909 15.619413-15.947094 22.959445h-0.55569l5.741226-32.561835H465.59232zM559.555925 574.515883a98.904747 98.904747 0 0 1 22.87343-11.341824c8.071851-2.771627 16.113664-4.184747 24.12544-4.243456 10.990933-0.155648 18.721451 2.105344 23.190186 6.782976 4.467371 4.678997 5.682517 12.715349 3.64544 24.109056h-20.594688c-7.921664-0.087381-16.211968 0.434176-24.870912 1.564672-8.658944 1.130496-16.908288 3.391488-24.748032 6.784341-7.830187 3.409237-14.569472 8.418645-20.217856 15.028224-5.647019 6.608213-9.475413 15.23712-11.486549 25.881259-1.911467 13.706581 1.418581 24.212821 9.992875 31.517354 8.574293 7.304533 19.438251 10.993664 32.593237 11.063296 8.738133-0.042325 17.534976-2.185899 26.390528-6.436181 8.854187-4.250283 16.263851-10.361515 22.227627-18.333696h0.55569l-1.26976 9.566891a94.938453 94.938453 0 0 0-0.83968 11.863381h32.840363c0.555691-5.525504 1.155072-10.89536 1.796779-16.106837 0.640341-5.212843 1.365333-10.513067 2.176341-15.897942 0.775509-5.218304 1.616555-10.715136 2.525867-16.48913 0.907947-5.77536 1.990656-12.245675 3.249493-19.41231l3.238571-18.367829c3.863893-21.023403 1.735339-36.376576-6.384299-46.058155-8.121003-9.682944-23.037269-14.460245-44.7488-14.333269-8.118272 0.034133-16.766293 1.010347-25.945429 2.921813-9.179136 1.914197-17.773909 4.557483-25.78432 7.932587z m7.932587 62.338389c2.561365-10.6496 8.597504-17.526784 18.108416-20.628821 9.510912-3.102037 18.752853-4.481024 27.725824-4.139691h16.140971c-0.928427 5.595136-2.39616 10.89536-4.4032 15.897941-2.00704 5.003947-4.871509 9.538219-8.590678 13.602816a40.752469 40.752469 0 0 1-12.637525 9.322496c-4.795051 2.27328-10.05568 3.432448-15.780523 3.47887-6.836224 0.032768-12.203349-1.357141-16.101376-4.17519-3.898027-2.816683-5.384875-7.2704-4.463274-13.358421zM796.0576 536.387584c-4.801877-1.536-10.033835-2.707456-15.695872-3.513003-5.660672-0.805547-12.210176-1.211051-19.647147-1.217877-22.579883 0.505173-41.00096 7.705941-55.261866 21.603669s-23.307605 31.465472-27.140096 52.701867c-3.921237 22.271317-1.206955 40.349696 8.144213 54.235136 9.349803 13.88544 25.748821 21.039787 49.195691 21.46304 7.570773 0.013653 14.406997-0.359083 20.512768-1.112747a110.171477 110.171477 0 0 0 17.6128-3.618133l3.779242-30.890667c-3.597653 1.496405-8.11008 2.957312-13.54001 4.38272a69.184171 69.184171 0 0 1-16.30208 2.296491c-13.006165-0.296277-21.931349-4.782763-26.779648-13.462187-4.846933-8.680789-6.067541-19.776853-3.660459-33.292288 2.549077-13.70112 7.898453-24.636075 16.046763-32.804864 8.149675-8.168789 18.082475-12.356267 29.80113-12.558336 5.625173 0.028672 10.349227 0.528384 14.173526 1.496406 3.822933 0.968021 7.230805 2.23232 10.21952 3.79153zM825.764523 592.605184c2.535424-9.804459 7.066965-17.8176 13.597354-24.038059 6.529024-6.221824 15.015936-9.434453 25.459371-9.636522 10.278229 0.273067 17.212757 3.623595 20.803584 10.052949 3.590827 6.43072 4.789589 14.304597 3.592192 23.620267z m80.157354 47.311531a158.460587 158.460587 0 0 1-24.020309 10.15808c-8.366763 2.757973-17.073493 4.197035-26.121557 4.313088-11.69408-0.064171-20.637013-3.205803-26.8288-9.427627-6.190421-6.220459-8.757248-15.138816-7.70048-26.750976h99.074048c4.982101-25.523541 3.910315-46.209707-3.213995-62.061227-7.125675-15.85152-23.693995-24.016213-49.706325-24.491349-22.351872 0.562517-40.314197 7.995392-53.886976 22.298624-13.574144 14.304597-22.231723 32.104448-25.975467 53.399552-4.01408 23.673515-0.669013 41.936213 10.027008 54.790827 10.697387 12.853248 27.941547 19.359061 51.73248 19.516074 9.966933-0.004096 19.146069-0.969387 27.538773-2.88768 8.391339-1.919659 16.30208-4.760917 23.732224-8.523776z" p-id="4882" fill="#FFA600"></path><path d="M29.979989 896.989867h37.292715l25.617749-145.274198h0.555691l48.689152 145.274198h47.590059l34.254848-194.254166h-37.292715l-25.617749 145.271467h-0.557056L112.103424 702.737067h-47.868587zM257.346219 811.272875c2.534059-9.804459 7.066965-17.8176 13.595989-24.038059 6.530389-6.221824 15.015936-9.434453 25.459371-9.636523 10.278229 0.273067 17.212757 3.623595 20.804949 10.05295 3.590827 6.43072 4.788224 14.304597 3.590827 23.620266z m80.155989 47.31153a158.451029 158.451029 0 0 1-24.020309 10.15808c-8.366763 2.757973-17.073493 4.197035-26.120192 4.313088-11.695445-0.064171-20.638379-3.205803-26.8288-9.427626-6.191787-6.220459-8.758613-15.138816-7.701846-26.750976h99.075414c4.980736-25.523541 3.910315-46.209707-3.21536-62.061227-7.124309-15.85152-23.693995-24.016213-49.706326-24.491349-22.350507 0.562517-40.314197 7.995392-53.886976 22.298624-13.572779 14.304597-22.231723 32.104448-25.975466 53.399552-4.012715 23.673515-0.669013 41.936213 10.028373 54.790826 10.697387 12.853248 27.940181 19.359061 51.731115 19.516075 9.966933-0.004096 19.147435-0.969387 27.538773-2.88768 8.391339-1.919659 16.30208-4.760917 23.732224-8.523776zM376.643584 853.85216c-2.467157 14.35648-0.551595 25.650517 5.748053 33.883477 6.301013 8.23296 16.774485 12.43136 31.420416 12.593835 5.5296 0 10.589525-0.278528 15.174315-0.835584 4.586155-0.557056 8.907435-1.39264 12.965205-2.504021l4.089174-29.500758c-2.215936 1.258837-4.867413 2.221397-7.953067 2.88768-3.085653 0.666283-6.322859 1.00352-9.710251 1.008982-6.90176-0.219819-11.172523-2.632363-12.812288-7.236267-1.641131-4.603904-1.824085-10.07616-0.548864-16.419499l11.778731-66.792106h33.117525L464.721237 753.664h-33.117525l7.165269-40.63232-39.40352 11.967147L394.312363 753.664h-27.552427l-4.808704 27.273899h27.552427z" p-id="4883" fill="#FFA600"></path><path d="M483.328 896.989867h42.580651l49.900202-109.372758h0.557056l11.882496 109.372758h43.971926L701.465941 753.664h-35.621546l-48.477526 106.031787h-0.557056L604.338859 753.664h-43.41487l-47.641941 106.031787h-0.555691L499.696981 753.664h-39.518208zM687.733419 826.299733c-3.559424 21.105323-0.079189 38.592512 10.439338 52.460203 10.518528 13.869056 27.641173 21.058901 51.369302 21.569536 24.040789-0.510635 43.780779-7.70048 59.219968-21.569536 15.439189-13.867691 25.097557-31.35488 28.975104-52.458837 3.739648-23.864661-0.185685-42.441387-11.774635-55.730176-11.588949-13.288789-28.246016-20.037632-49.968469-20.246528-21.662379 0.208896-40.618667 6.957739-56.864768 20.247893-16.247467 13.287424-26.711381 31.864149-31.39584 55.728811z m39.747584-4.450986c1.948331-11.150677 6.628693-20.925099 14.042453-29.32736 7.412395-8.400896 17.201835-12.817749 29.366955-13.253291 12.151467 0.400043 20.475904 4.748629 24.971946 13.04576 4.498773 8.297131 5.730304 18.141184 3.698688 29.534891-1.926485 12.53376-6.356992 23.782741-13.29152 33.742848-6.933163 9.961472-17.474901 15.226197-31.62385 15.794176-13.811712-0.585728-22.409216-5.884587-25.791147-15.897942-3.383296-10.013355-3.840683-21.226837-1.373525-33.639082zM841.506816 896.989867h37.292715l9.274709-52.599467c1.084075-7.204864 2.88768-15.305387 5.410816-24.304299 2.521771-8.998912 6.529024-16.853675 12.019029-23.562922 5.490005-6.710613 13.227349-10.235904 23.210667-10.575872 3.409237 0.004096 6.561792 0.273067 9.46176 0.800085 2.898603 0.528384 5.130923 1.282048 6.69696 2.260992l6.625963-37.569877a26.200747 26.200747 0 0 0-5.638827-0.974848 75.907072 75.907072 0 0 0-5.576021-0.139264c-11.38688 0.660821-21.262336 4.975275-29.625003 12.941994-8.361301 7.965355-13.677909 15.619413-15.945728 22.959446h-0.557056L899.899392 753.664H866.781867zM935.761237 896.989867h37.292715l12.268885-69.576022h0.555691l35.599701 69.576022h47.310166l-46.126422-79.31631L1087.384235 753.664h-43.971926L988.7744 810.994347h-0.557056l21.643264-122.729814H972.567893z" p-id="4884" fill="#FFA600"></path><path d="M55.629141 665.534464h53.156523c30.593024 0.771413 57.884672-5.779456 81.876309-19.653973 23.991637-13.874517 39.794005-39.698432 47.405739-77.47311 4.209323-25.467563 2.422101-45.28128-5.360299-59.442517-7.7824-14.159872-19.629397-24.038059-35.539626-29.633195-15.911595-5.595136-33.953109-8.279381-54.127275-8.05137H89.885355z m67.818838-163.640661h21.7088c16.889173 0.128341 30.605312 5.925547 41.14705 17.394346 10.540373 11.4688 14.252715 27.841877 11.131563 49.119232-4.38272 21.27872-13.869056 37.651797-28.454912 49.120598-14.587221 11.4688-30.348629 17.266005-47.282859 17.394346H99.990187zM242.832725 665.534464h53.155158c30.593024 0.771413 57.886037-5.779456 81.877674-19.653973 23.991637-13.874517 39.794005-39.698432 47.404374-77.47311 4.210688-25.467563 2.423467-45.28128-5.358934-59.442517-7.7824-14.159872-19.629397-24.038059-35.539626-29.633195-15.911595-5.595136-33.953109-8.279381-54.127275-8.05137h-53.156523z m67.818838-163.640661h21.7088c16.889173 0.128341 30.605312 5.925547 41.14705 17.394346 10.540373 11.4688 14.251349 27.841877 11.131563 49.119232-4.384085 21.27872-13.869056 37.651797-28.456277 49.120598-14.585856 11.4688-30.347264 17.266005-47.281494 17.394346h-21.7088zM427.530923 665.534464h37.292714l9.276075-52.598101c1.082709-7.204864 2.886315-15.306752 5.409451-24.305664 2.521771-8.997547 6.529024-16.852309 12.019029-23.562923 5.490005-6.709248 13.227349-10.234539 23.210667-10.574507 3.409237 0.005461 6.563157 0.273067 9.46176 0.800086 2.898603 0.527019 5.130923 1.280683 6.69696 2.260992l6.625962-37.571243a26.187093 26.187093 0 0 0-5.638826-0.973483 75.871573 75.871573 0 0 0-5.574656-0.139264c-11.388245 0.660821-21.263701 4.975275-29.626368 12.94063-8.361301 7.96672-13.676544 15.619413-15.945728 22.959445h-0.557056l5.742592-32.560469h-33.117526zM546.769579 561.728171a98.904747 98.904747 0 0 1 22.873429-11.340459c8.071851-2.771627 16.113664-4.186112 24.12544-4.243456 10.990933-0.157013 18.721451 2.103979 23.188821 6.782976 4.468736 4.678997 5.683883 12.715349 3.64544 24.107691H600.009387c-7.921664-0.087381-16.211968 0.435541-24.870912 1.566037-8.658944 1.130496-16.908288 3.391488-24.748032 6.782976-7.830187 3.409237-14.569472 8.418645-20.217856 15.028224-5.647019 6.609579-9.475413 15.23712-11.48655 25.882624-1.911467 13.706581 1.418581 24.211456 9.992875 31.517355 8.574293 7.304533 19.438251 10.992299 32.593237 11.06193 8.738133-0.042325 17.534976-2.184533 26.390528-6.434816 8.854187-4.250283 16.263851-10.361515 22.227627-18.333696h0.555691l-1.26976 9.566891a94.969856 94.969856 0 0 0-0.83968 11.862016h32.840362c0.555691-5.525504 1.155072-10.893995 1.795414-16.105472 0.641707-5.212843 1.366699-10.513067 2.177706-15.897941 0.775509-5.218304 1.616555-10.715136 2.525867-16.490496 0.907947-5.77536 1.990656-12.244309 3.249493-19.410944l3.238571-18.36783c3.863893-21.023403 1.733973-36.376576-6.384299-46.05952-8.121003-9.681579-23.037269-14.45888-44.7488-14.331904-8.118272 0.032768-16.766293 1.008981-25.945429 2.921814-9.179136 1.914197-17.773909 4.557483-25.78432 7.932586z m7.932586 62.34112c2.561365-10.652331 8.597504-17.528149 18.108416-20.630187 9.510912-3.102037 18.752853-4.482389 27.725824-4.139691h16.140971c-0.928427 5.595136-2.39616 10.89536-4.4032 15.897942-2.00704 5.003947-4.871509 9.538219-8.590677 13.60145a40.752469 40.752469 0 0 1-12.637526 9.323862c-4.796416 2.271915-10.05568 3.432448-15.780522 3.478869-6.836224 0.031403-12.203349-1.357141-16.101376-4.175189-3.898027-2.818048-5.38624-7.2704-4.463275-13.358422zM783.271253 523.601237c-4.801877-1.536-10.033835-2.707456-15.695872-3.513002-5.660672-0.805547-12.211541-1.212416-19.648512-1.217878-22.578517 0.505173-40.999595 7.705941-55.260501 21.60367-14.260907 13.897728-23.307605 31.465472-27.140096 52.701866-3.921237 22.271317-1.206955 40.348331 8.142848 54.235136 9.351168 13.88544 25.750187 21.039787 49.197056 21.46304 7.570773 0.010923 14.406997-0.359083 20.512768-1.112746a110.171477 110.171477 0 0 0 17.6128-3.618134l3.779243-30.890666c-3.597653 1.49504-8.111445 2.955947-13.540011 4.38272a69.186901 69.186901 0 0 1-16.30208 2.29649c-13.006165-0.296277-21.932715-4.784128-26.779648-13.462186-4.846933-8.680789-6.067541-19.778219-3.660459-33.292288 2.549077-13.70112 7.898453-24.636075 16.046763-32.804864 8.149675-8.170155 18.082475-12.356267 29.801131-12.558336 5.625173 0.027307 10.349227 0.527019 14.173525 1.49504 3.822933 0.969387 7.230805 2.23232 10.21952 3.792896zM812.978176 579.818837c2.535424-9.804459 7.066965-17.8176 13.597355-24.039424 6.529024-6.220459 15.015936-9.433088 25.45937-9.635157 10.278229 0.273067 17.212757 3.623595 20.803584 10.052949 3.590827 6.43072 4.789589 14.304597 3.592192 23.620267z m80.157355 47.310166a158.449664 158.449664 0 0 1-24.02031 10.15808c-8.366763 2.760704-17.073493 4.1984-26.121557 4.314453-11.69408-0.064171-20.637013-3.207168-26.8288-9.427627-6.190421-6.221824-8.757248-15.138816-7.70048-26.752341H907.537067c4.982101-25.522176 3.910315-46.208341-3.213995-62.061227-7.125675-15.85152-23.693995-24.014848-49.706325-24.489984-22.351872 0.562517-40.314197 7.995392-53.888342 22.298624-13.571413 14.304597-22.231723 32.103083-25.975466 53.398187-4.011349 23.67488-0.669013 41.937579 10.028373 54.790827 10.697387 12.854613 27.941547 19.360427 51.73248 19.516074 9.966933-0.005461 19.146069-0.968021 27.538773-2.886314 8.391339-1.919659 16.30208-4.760917 23.732224-8.523776z" p-id="4885" fill="#FFA600"></path><path d="M17.193643 884.20352h37.292714L80.104107 738.927957h0.55569l48.687787 145.272832h47.590059l34.256213-194.2528h-37.292715l-25.617749 145.271467h-0.557056l-48.409259-145.271467h-47.868586zM244.558507 798.486528c2.535424-9.804459 7.068331-17.8176 13.59872-24.038059 6.529024-6.221824 15.014571-9.434453 25.458005-9.636522 10.278229 0.273067 17.212757 3.623595 20.804949 10.052949 3.590827 6.43072 4.788224 14.304597 3.590827 23.620267z m80.15872 47.310165a158.45376 158.45376 0 0 1-24.021675 10.15808c-8.366763 2.760704-17.073493 4.1984-26.121557 4.314454-11.69408-0.064171-20.637013-3.207168-26.8288-9.427627-6.190421-6.221824-8.757248-15.138816-7.70048-26.752341h99.074048c4.983467-25.522176 3.910315-46.208341-3.213995-62.059862-7.125675-15.85152-23.693995-24.016213-49.706325-24.491349-22.350507 0.562517-40.314197 7.995392-53.886976 22.298624-13.574144 14.304597-22.231723 32.103083-25.975467 53.398187-4.012715 23.67488-0.669013 41.937579 10.027008 54.790826 10.697387 12.854613 27.941547 19.360427 51.73248 19.516075 9.966933-0.004096 19.147435-0.968021 27.538773-2.886315 8.391339-1.919659 16.30208-4.760917 23.732224-8.523776zM363.857237 841.065813c-2.467157 14.35648-0.551595 25.650517 5.748054 33.883478 6.301013 8.23296 16.77312 12.43136 31.41905 12.592469 5.532331 0 10.589525-0.277163 15.17568-0.834219s8.907435-1.39264 12.965206-2.505386l4.089173-29.499392c-2.215936 1.258837-4.867413 2.221397-7.953067 2.88768-3.085653 0.666283-6.322859 1.00352-9.71025 1.008981-6.90176-0.221184-11.172523-2.632363-12.813654-7.236267-1.639765-4.603904-1.82272-10.07616-0.547498-16.419498l11.777365-66.792107h33.118891l4.808704-27.273899h-33.117526l7.16527-40.63232-39.40352 11.967147-5.054464 28.665173h-27.552427l-4.808704 27.273899h27.552427z" p-id="4886" fill="#FFA600"></path><path d="M470.543019 884.20352h42.579285l49.900203-109.372757h0.557056l11.882496 109.371392h43.971925l69.245611-143.324502h-35.622912l-48.47616 106.031787h-0.557056l-12.470955-106.031787h-43.414869l-47.641942 106.031787h-0.557056l-13.02801-106.031787H447.392427zM674.947072 813.514752c-3.559424 21.103957-0.079189 38.591147 10.439339 52.458837 10.518528 13.869056 27.641173 21.058901 51.369301 21.568171 24.040789-0.509269 43.780779-7.699115 59.219968-21.568171 15.439189-13.867691 25.097557-31.35488 28.975104-52.458837 3.738283-23.864661-0.185685-42.441387-11.774635-55.730176-11.590315-13.288789-28.246016-20.037632-49.968469-20.246528-21.662379 0.208896-40.618667 6.957739-56.864768 20.246528-16.247467 13.288789-26.712747 31.865515-31.39584 55.730176z m39.747584-4.453717c1.948331-11.149312 6.628693-20.923733 14.042453-29.325995 7.412395-8.400896 17.201835-12.819115 29.366955-13.253291 12.151467 0.400043 20.475904 4.748629 24.971947 13.04576 4.497408 8.295765 5.730304 18.141184 3.698688 29.533526-1.926485 12.535125-6.356992 23.784107-13.29152 33.744213-6.933163 9.961472-17.476267 15.226197-31.623851 15.794176-13.811712-0.587093-22.409216-5.884587-25.791147-15.897941-3.383296-10.013355-3.840683-21.226837-1.373525-33.640448zM828.720469 884.20352h37.292715l9.274709-52.599467c1.084075-7.204864 2.886315-15.305387 5.409451-24.305664 2.523136-8.997547 6.530389-16.852309 12.020395-23.561557 5.48864-6.710613 13.227349-10.235904 23.210666-10.575872 3.409237 0.005461 6.561792 0.273067 9.46176 0.800085 2.897237 0.527019 5.130923 1.280683 6.69696 2.260992l6.625963-37.571242a26.184363 26.184363 0 0 0-5.638827-0.973483 75.872939 75.872939 0 0 0-5.576021-0.139264c-11.38688 0.660821-21.262336 4.975275-29.625003 12.940629-8.362667 7.96672-13.677909 15.619413-15.947093 22.960811h-0.555691l5.742592-32.561835h-33.117525zM922.974891 884.20352h37.291349l12.270251-69.576021h0.55569l35.599702 69.574656h47.310165l-46.126421-79.314944 64.722261-64.009558h-43.971925l-54.63791 57.330347h-0.557056l21.643264-122.729813h-37.292714z" p-id="4887" fill="#FFA600"></path><path d="M52.67456 662.581248h53.156523c30.593024 0.771413 57.884672-5.780821 81.877674-19.655339 23.991637-13.874517 39.79264-39.698432 47.404374-77.471744 4.209323-25.467563 2.423467-45.282645-5.358934-59.442517-7.7824-14.161237-19.630763-24.039424-35.539626-29.63456-15.911595-5.595136-33.954475-8.278016-54.12864-8.050005H86.930773z m67.820203-163.640661h21.707434c16.889173 0.126976 30.605312 5.925547 41.147051 17.394346 10.541739 11.467435 14.252715 27.840512 11.132928 49.119232-4.384085 21.27872-13.870421 37.651797-28.456277 49.120598-14.587221 11.4688-30.347264 17.266005-47.281494 17.394346h-21.7088zM239.878144 662.581248h53.156523c30.593024 0.771413 57.884672-5.780821 81.876309-19.655339 23.991637-13.874517 39.794005-39.698432 47.405739-77.471744 4.209323-25.467563 2.422101-45.282645-5.360299-59.442517-7.7824-14.161237-19.629397-24.039424-35.539627-29.63456-15.911595-5.595136-33.953109-8.278016-54.127274-8.050005h-53.155158z m67.820203-163.640661h21.707434c16.889173 0.126976 30.605312 5.925547 41.147051 17.394346 10.541739 11.467435 14.252715 27.840512 11.132928 49.119232-4.385451 21.27872-13.870421 37.651797-28.456277 49.120598-14.587221 11.4688-30.347264 17.266005-47.282859 17.394346h-21.707435zM424.577707 662.581248h37.291349l9.276075-52.599467c1.082709-7.204864 2.886315-15.305387 5.40945-24.304298 2.523136-8.997547 6.529024-16.852309 12.01903-23.562923 5.490005-6.710613 13.227349-10.235904 23.212032-10.575872 3.407872 0.005461 6.561792 0.273067 9.460394 0.800085 2.898603 0.528384 5.130923 1.282048 6.698326 2.260992l6.624597-37.569877a26.187093 26.187093 0 0 0-5.637461-0.974848 75.874304 75.874304 0 0 0-5.576022-0.139264c-11.38688 0.662187-21.263701 4.975275-29.625002 12.941995-8.362667 7.965355-13.677909 15.619413-15.947094 22.959445h-0.55569l5.741226-32.561835h-33.117525zM543.816363 558.774955a98.904747 98.904747 0 0 1 22.872064-11.340459c8.071851-2.771627 16.113664-4.186112 24.12544-4.244821 10.990933-0.155648 18.721451 2.105344 23.190186 6.784341 4.467371 4.678997 5.683883 12.713984 3.64544 24.107691h-20.594688c-7.921664-0.087381-16.211968 0.434176-24.870912 1.564672-8.658944 1.130496-16.906923 3.392853-24.746666 6.784341-7.831552 3.409237-14.570837 8.418645-20.217856 15.028224-5.648384 6.608213-9.476779 15.23712-11.487915 25.881259-1.911467 13.707947 1.419947 24.212821 9.992875 31.517354 8.574293 7.305899 19.438251 10.993664 32.593237 11.063296 8.738133-0.043691 17.534976-2.185899 26.391893-6.436181 8.854187-4.250283 16.262485-10.360149 22.226262-18.332331h0.55569l-1.26976 9.565526a94.979413 94.979413 0 0 0-0.838314 11.863381h32.838997c0.557056-5.525504 1.155072-10.89536 1.796779-16.106837 0.641707-5.212843 1.365333-10.511701 2.177706-15.897942 0.774144-5.218304 1.616555-10.715136 2.524502-16.48913 0.907947-5.77536 1.990656-12.245675 3.249493-19.41231l3.238571-18.367829c3.863893-21.022037 1.735339-36.375211-6.384299-46.058155-8.119637-9.682944-23.035904-14.45888-44.7488-14.333269-8.118272 0.038229-16.766293 1.010347-25.945429 2.921813-9.179136 1.914197-17.773909 4.558848-25.78432 7.932587z m7.931221 62.339754c2.561365-10.650965 8.598869-17.528149 18.108416-20.630186 9.510912-3.100672 18.752853-4.481024 27.725824-4.139691h16.140971c-0.928427 5.595136-2.39616 10.89536-4.4032 15.897941-2.00704 5.003947-4.871509 9.538219-8.590678 13.602816a40.752469 40.752469 0 0 1-12.637525 9.322496c-4.795051 2.27328-10.05568 3.432448-15.780523 3.47887-6.836224 0.032768-12.203349-1.357141-16.101376-4.173824-3.898027-2.818048-5.384875-7.2704-4.461909-13.358422zM780.318037 520.648021c-4.803243-1.537365-10.0352-2.707456-15.695872-3.514368-5.662037-0.805547-12.211541-1.211051-19.649877-1.217877-22.578517 0.505173-40.998229 7.705941-55.260501 21.603669-14.260907 13.899093-23.30624 31.465472-27.138731 52.703232-3.922603 22.269952-1.206955 40.348331 8.142848 54.233771 9.349803 13.88544 25.748821 21.039787 49.195691 21.46304 7.570773 0.012288 14.408363-0.357717 20.512768-1.111381a110.178304 110.178304 0 0 0 17.614165-3.618134l3.777877-30.892032c-3.597653 1.496405-8.11008 2.957312-13.54001 4.38272a69.186901 69.186901 0 0 1-16.30208 2.296491c-13.006165-0.296277-21.931349-4.782763-26.778283-13.462187-4.846933-8.679424-6.067541-19.776853-3.661824-33.292288 2.549077-13.699755 7.898453-24.634709 16.048128-32.804864 8.148309-8.168789 18.082475-12.356267 29.801131-12.558336 5.625173 0.027307 10.349227 0.528384 14.17216 1.496406 3.824299 0.969387 7.230805 2.23232 10.220885 3.79153zM810.02496 576.864256c2.534059-9.803093 7.066965-17.8176 13.595989-24.038059 6.530389-6.221824 15.015936-9.434453 25.459371-9.636522 10.278229 0.273067 17.212757 3.623595 20.804949 10.054314 3.590827 6.43072 4.788224 14.303232 3.590827 23.620267z m80.155989 47.311531a158.459221 158.459221 0 0 1-24.020309 10.15808c-8.366763 2.759339-17.073493 4.197035-26.121557 4.314453-11.69408-0.065536-20.637013-3.208533-26.8288-9.428992-6.190421-6.220459-8.757248-15.137451-7.70048-26.750976h99.074048c4.983467-25.522176 3.910315-46.209707-3.213995-62.061227-7.125675-15.85152-23.693995-24.016213-49.706325-24.491349-22.350507 0.563883-40.314197 7.996757-53.886976 22.299989-13.574144 14.303232-22.231723 32.103083-25.975467 53.398187-4.012715 23.673515-0.669013 41.936213 10.027008 54.790827 10.697387 12.854613 27.941547 19.360427 51.73248 19.516074 9.966933-0.005461 19.147435-0.969387 27.538773-2.88768 8.391339-1.919659 16.30208-4.759552 23.732224-8.52241z" p-id="4888" fill="#FFA600"></path><path d="M14.240427 881.248939h37.291349l25.617749-145.272832h0.557056l48.687787 145.271466h47.590059l34.256213-194.2528h-37.29408L145.328811 832.26624h-0.555691L96.362496 686.994773h-47.868587zM241.605291 795.531947c2.535424-9.803093 7.066965-17.8176 13.597354-24.038059 6.529024-6.221824 15.015936-9.434453 25.459371-9.636523 10.276864 0.273067 17.211392 3.623595 20.803584 10.054315 3.590827 6.43072 4.788224 14.303232 3.592192 23.620267z m80.157354 47.31153a158.459221 158.459221 0 0 1-24.021674 10.15808c-8.365397 2.759339-17.072128 4.197035-26.120192 4.314454-11.695445-0.064171-20.638379-3.208533-26.8288-9.428992-6.190421-6.220459-8.758613-15.137451-7.70048-26.750976h99.074048c4.982101-25.522176 3.910315-46.209707-3.21536-62.061227-7.124309-15.85152-23.692629-24.016213-49.706326-24.491349-22.350507 0.562517-40.314197 7.996757-53.886976 22.299989-13.572779 14.303232-22.231723 32.103083-25.975466 53.398187-4.011349 23.673515-0.669013 41.936213 10.028373 54.790826 10.697387 12.854613 27.941547 19.360427 51.73248 19.516075 9.966933-0.005461 19.146069-0.969387 27.538773-2.88768 8.391339-1.919659 16.30208-4.759552 23.732224-8.522411zM360.904021 838.112597c-2.468523 14.355115-0.551595 25.649152 5.748054 33.882112 6.299648 8.23296 16.77312 12.43136 31.41905 12.593835 5.530965 0 10.589525-0.278528 15.17568-0.835584 4.584789-0.555691 8.907435-1.391275 12.965206-2.504021l4.089173-29.500758c-2.217301 1.258837-4.868779 2.221397-7.954432 2.88768-3.085653 0.667648-6.321493 1.00352-9.710251 1.010347-6.900395-0.221184-11.171157-2.633728-12.812288-7.236267-1.641131-4.603904-1.824085-10.077525-0.548864-16.420864l11.778731-66.792106h33.117525l4.81007-27.273899h-33.118891l7.165269-40.63232-39.402154 11.968512-5.054464 28.663808h-27.552427l-4.808704 27.273899h27.552427z" p-id="4889" fill="#FFA600"></path><path d="M467.588437 881.248939h42.580651l49.898837-109.372758h0.557056l11.882496 109.372758h43.971926L685.725013 737.921707h-35.621546l-48.477526 106.033152h-0.55569l-12.47232-106.031787h-43.41487l-47.640576 106.031787h-0.557056l-13.02801-106.031787h-39.519574zM671.992491 810.560171c-3.558059 21.103957-0.079189 38.591147 10.439338 52.460202 10.518528 13.867691 27.642539 21.057536 51.369302 21.568171 24.042155-0.510635 43.782144-7.70048 59.219968-21.568171 15.439189-13.869056 25.097557-31.356245 28.976469-52.460202 3.738283-23.864661-0.187051-42.441387-11.776-55.730176-11.588949-13.288789-28.244651-20.037632-49.967104-20.246528-21.663744 0.208896-40.618667 6.957739-56.866133 20.247893-16.247467 13.287424-26.711381 31.864149-31.39584 55.728811z m39.747584-4.452352c1.948331-11.149312 6.630059-20.925099 14.042453-29.32736 7.41376-8.399531 17.2032-12.817749 29.36832-13.253291 12.151467 0.400043 20.474539 4.748629 24.971947 13.04576 4.497408 8.297131 5.730304 18.141184 3.697322 29.534891-1.92512 12.53376-6.356992 23.782741-13.290154 33.744213-6.934528 9.960107-17.476267 15.223467-31.623851 15.792811-13.811712-0.585728-22.409216-5.884587-25.791147-15.897942-3.384661-10.013355-3.842048-21.225472-1.37489-33.639082zM825.767253 881.248939h37.29135l9.276074-52.599467c1.082709-7.204864 2.886315-15.305387 5.409451-24.304299 2.523136-8.997547 6.529024-16.852309 12.019029-23.562922 5.490005-6.710613 13.227349-10.235904 23.212032-10.575872 3.407872 0.005461 6.561792 0.273067 9.460395 0.800085 2.898603 0.528384 5.130923 1.282048 6.698325 2.260992l6.624598-37.569877a26.219861 26.219861 0 0 0-5.637462-0.974848 75.874304 75.874304 0 0 0-5.576021-0.139264c-11.38688 0.662187-21.263701 4.975275-29.625003 12.941994-8.362667 7.965355-13.677909 15.619413-15.947093 22.959446h-0.555691l5.741227-32.561835h-33.117525zM920.020309 881.248939h37.292715l12.268885-69.576022h0.557056l35.598336 69.576022h47.311531l-46.126421-79.31631 64.720896-64.009557H1027.672747l-54.63791 57.330347h-0.55569l21.641898-122.729814h-37.291349z" p-id="4890" fill="#FFA600"></path><path d="M97.243136 564.649984c-9.759403 0.238933-19.083264 1.51552-27.809109 3.395584l-16.710315 94.522027h53.136043c30.593024 0.770048 57.865557-5.709824 81.857194-19.584342 11.573931-6.692864 21.221376-16.206507 28.983296-28.460373-11.838805-4.268032-20.322987-12.692139-32.246442-21.671936-4.808704 8.515584-10.891264 15.761408-18.40879 21.671936-14.587221 11.4688-30.325419 17.36704-47.261013 17.494016H96.982357l11.879766-67.106133c-3.93216-0.232107-7.812437-0.352256-11.618987-0.259414z m344.140459 2.611883l-16.841387 95.304362h37.339136l9.270613-52.61312c1.081344-7.204864 2.828971-15.284907 5.352107-24.283818 1.380352-4.924757 3.343701-9.467221 5.61152-13.707947-13.892267-3.162112-27.429547-4.565675-40.731989-4.699477z m-19.582976 0.783701c-14.228139 1.204224-28.400299 3.781973-42.691243 7.309995-5.057195 16.521899-13.613739 29.547179-25.849856 39.167317-14.585856 11.4688-30.324053 17.36704-47.259648 17.494016h-21.803008l4.830549-27.546965c-3.386027 1.185109-6.604117 2.33472-10.052949 3.52529-12.203349 4.207957-22.239915 6.834859-30.810112 8.224768l-8.224768 46.34624h53.134677c30.593024 0.771413 57.865557-5.707093 81.857195-19.582976 23.42912-13.549568 39.060821-38.597973 46.869163-74.937685z m485.66272 0.652629c-25.7024 6.578176-56.864768 18.253141-95.696214 33.81248h92.823552c2.419371-12.394496 3.308203-23.698091 2.872662-33.81248z m-373.646678 22.3232c-2.331989 1.975637-4.612096 4.004523-6.65873 6.397952-5.647019 6.609579-9.478144 15.335424-11.487915 25.980928-1.912832 13.706581 1.478656 24.158208 10.051584 31.462742 8.574293 7.305899 19.483307 11.027797 32.639659 11.097429 8.738133-0.053248 17.517227-2.277376 26.371413-6.526293 8.855552-4.251648 16.231083-10.306901 22.194859-18.279083h0.521557c-0.312661 2.371584-0.643072 5.524139-1.174187 9.530027-0.53248 4.007253-0.887467 7.979008-0.914773 11.88113h32.899072c0.557056-5.525504 1.056768-10.846208 1.697109-16.057685 0.135168-1.112747 0.376832-2.27328 0.521558-3.394219-15.157931-3.097941-28.581888-8.668501-41.646763-15.406421-3.181227 3.044693-6.71744 5.552811-10.704213 7.441067-4.796416 2.27328-10.072064 3.480235-15.796907 3.52529-6.837589 0.054613-12.161024-1.358507-16.059051-4.17792-3.898027-2.816683-5.491371-7.359147-4.56977-13.445802 1.583787-6.585003 4.506965-11.706368 8.74769-15.406422-8.45824-4.99712-17.234603-9.916416-26.633557-14.62272z m271.552512 14.101163c-10.749269 4.332203-22.566229 9.050795-34.597546 13.968725 1.323008 10.828459 5.006677 19.966635 11.097429 27.286187 10.698752 12.854613 27.910144 19.427328 51.701077 19.582976 9.966933-0.004096 19.154261-0.953003 27.546966-2.871296a103.728469 103.728469 0 0 0 23.760896-8.616619l5.352106-30.28992a158.562987 158.562987 0 0 1-24.02304 10.185387c-8.365397 2.757973-17.062571 4.191573-26.110634 4.306261-11.69408-0.064171-20.702549-3.178496-26.892971-9.398954-5.707093-5.735765-8.286208-13.834923-7.834283-24.152747z m-43.60465 25.197227c-3.597653 1.49504-8.018603 2.880853-13.447168 4.307626-5.429931 1.426773-10.880341 2.245973-16.318464 2.349739a49.919317 49.919317 0 0 1-7.050582-0.652629c-20.187819 6.163115-37.691392 8.978432-53.265749 9.40032 9.483605 13.044395 25.459371 19.82464 48.174421 20.235605 7.569408 0 14.521685-0.419157 20.627456-1.174187a108.703744 108.703744 0 0 0 17.494016-3.656362l3.78607-30.810112z" p-id="4891" fill="#FFA600"></path><path d="M937.832448 780.71808l-17.75616 100.526763h37.208064l12.272981-69.585579h0.521558l35.642026 69.585579h47.39072l-44.780202-77.026646c-10.903552-6.600021-20.941483-11.915264-29.113003-15.405056l-6.137173 6.396587h-0.65263l1.567403-8.616619c-11.397803-4.141056-23.209301-6.026581-36.163584-5.875029z m-844.16512 2.611883l32.769365 97.91488h47.521792l10.575872-59.663702c-8.922453-6.975488-18.591744-15.448747-33.292288-22.977194l-5.875029 33.682773h-0.652629L130.614613 790.1184c-2.063019-0.669013-4.172459-1.335296-6.396586-1.959253-10.477568-2.932736-20.691627-4.404565-30.550699-4.829184z m-25.195861 1.174186c-14.430208 1.938773-27.62752 5.846357-38.905174 10.313728l-15.275349 86.426966h37.208064l16.971093-96.740694z m338.788352 2.220032c-12.84096 1.176917-25.630037 3.447467-38.514688 6.526294l-7.832918 44.911274c-2.467157 14.35648-0.555691 25.580885 5.743958 33.813846 6.301013 8.23296 16.818176 12.500992 31.464106 12.663466 5.530965 0 10.558123-0.354987 15.144278-0.914773 4.586155-0.555691 8.86784-1.365333 12.92561-2.479445l4.046848-29.504854c-2.217301 1.257472-4.747264 2.205013-7.832917 2.871296-3.085653 0.667648-6.404779 1.039019-9.792171 1.04448-6.90176-0.219819-11.154773-2.707456-12.793173-7.309994-1.642496-4.603904-1.798144-9.976491-0.522923-16.31983l7.96399-45.30176z m45.30176 0.913408l15.01457 93.607254h42.560171l28.330667-62.144512c-7.641771-4.354048-15.519744-8.669867-24.02304-12.663467h-0.128342l-16.71168 37.470208h-0.652629l-5.743957-46.869163c-13.260117-4.621653-26.087424-7.681365-38.644395-9.40032z m430.829568 2.74159c-13.333845 3.888469-27.93472 8.922453-44.258646 15.013205l-13.316096 75.852459h37.208064l9.270614-52.61312c1.082709-7.204864 2.958677-15.284907 5.481813-24.283819 1.409024-5.025792 3.278165-9.655637 5.614251-13.968725z m-544.54272 11.227136c-18.415616 5.741227-37.576704 12.546048-57.574742 19.582976h54.833152c1.342123-6.871723 2.278741-13.411669 2.74159-19.582976z m482.92113 10.4448a3107.730773 3107.730773 0 0 0-45.563904 18.146645c-1.668437 3.336875-3.463851 6.572715-5.61425 9.661099-6.933163 9.961472-17.575936 15.228928-31.724886 15.796906-6.695595-0.283989-12.073643-1.677995-16.318464-4.17792-14.883499 5.143211-28.398933 8.537429-40.733354 10.575872 0.221184 0.300373 0.424619 0.6144 0.652629 0.914774 10.518528 13.867691 27.579733 21.161301 51.309227 21.67057 24.040789-0.510635 43.831296-7.80288 59.270485-21.671936 15.082837-13.548203 24.671573-30.463317 28.722517-50.91601zM201.897301 832.416427c0.637611 13.241003 4.410027 24.133632 11.48928 32.638293 10.697387 12.854613 27.908779 19.425963 51.698347 19.582976 9.968299-0.004096 19.155627-1.084075 27.546965-3.003733 8.392704-1.918293 16.332117-4.721323 23.760896-8.484182l5.352107-30.288554a158.531584 158.531584 0 0 1-24.020309 10.182656c-8.366763 2.759339-17.063936 4.191573-26.110635 4.308992-11.695445-0.065536-20.572843-3.309568-26.764629-9.530027-3.584-3.603115-6.025216-8.040448-7.180288-13.448533-15.962112 2.943659-26.812416 1.698475-35.771734-1.957888z m365.81376 3.915776l4.83055 44.911274h43.996501l9.530027-19.843754c-21.572267-4.662613-39.814485-14.174891-58.357078-25.06752z" p-id="4892" fill="#FFA600"></path></svg>